<svg width="67" height="67" viewBox="0 0 67 67" fill="none" xmlns="http://www.w3.org/2000/svg">
<path d="M61.4167 55.8333H5.58333C2.50412 55.8333 0 53.3292 0 50.25V16.75C0 13.6708 2.50412 11.1667 5.58333 11.1667H61.4167C64.4959 11.1667 67 13.6708 67 16.75V50.25C67 53.3292 64.4959 55.8333 61.4167 55.8333ZM5.58333 13.9583C4.04373 13.9583 2.79167 15.2104 2.79167 16.75V50.25C2.79167 51.7896 4.04373 53.0417 5.58333 53.0417H61.4167C62.9563 53.0417 64.2083 51.7896 64.2083 50.25V16.75C64.2083 15.2104 62.9563 13.9583 61.4167 13.9583H5.58333Z" fill="#F38705"/>
<path d="M33.5 40.7458L9.01289 24.9017C8.36523 24.4815 8.17958 23.6189 8.59833 22.9712C9.01708 22.3236 9.8811 22.1393 10.5288 22.5567L33.5 37.4209L56.4712 22.5567C57.1189 22.1393 57.9829 22.3236 58.4017 22.9712C58.8204 23.6189 58.6348 24.4815 57.9871 24.9017L33.5 40.7458Z" fill="#F38705"/>
<path d="M8.37639 47.4583C7.92554 47.4583 7.48166 47.2406 7.21366 46.8372C6.78514 46.1951 6.95822 45.3297 7.60031 44.9012L20.1628 36.5262C20.8049 36.0976 21.6717 36.2707 22.0988 36.9128C22.5273 37.5549 22.3543 38.4203 21.7122 38.8488L9.14968 47.2238C8.911 47.3816 8.6416 47.4583 8.37639 47.4583Z" fill="#F38705"/>
<path d="M58.6236 47.4583C58.3584 47.4583 58.089 47.3816 57.8503 47.2238L45.2878 38.8488C44.6457 38.4203 44.4726 37.5549 44.9012 36.9128C45.3283 36.2707 46.1937 36.0976 46.8372 36.5262L59.3997 44.9012C60.0418 45.3297 60.2149 46.1951 59.7863 46.8372C59.5183 47.2406 59.0745 47.4583 58.6236 47.4583Z" fill="#F38705"/>
</svg>
