<svg width="123" height="123" viewBox="0 0 123 123" fill="none" xmlns="http://www.w3.org/2000/svg">
<path d="M117.475 61.4759C117.475 61.4279 117.475 61.3558 117.475 61.3078C117.475 60.9234 117.475 60.539 117.451 60.1787C117.451 59.9625 117.427 59.7463 117.427 59.506C117.427 59.2898 117.403 59.0736 117.403 58.8574C117.379 58.5931 117.379 58.3289 117.354 58.0646C117.354 57.8965 117.33 57.7283 117.33 57.5601C117.306 57.2719 117.282 56.9836 117.258 56.6953C117.258 56.5752 117.234 56.431 117.234 56.3109C117.21 55.9986 117.162 55.6863 117.138 55.35C117.138 55.2779 117.114 55.1818 117.114 55.1097C113.943 27.1945 90.2561 5.50134 61.5 5.50134C32.7439 5.50134 9.05684 27.1945 5.88574 55.1338C5.88574 55.2058 5.86172 55.3019 5.86172 55.374C5.8377 55.6863 5.78965 55.9986 5.76562 56.3349C5.7416 56.4551 5.7416 56.5992 5.7416 56.7193C5.71758 57.0076 5.69355 57.2959 5.66953 57.5842C5.66953 57.7523 5.64551 57.9205 5.64551 58.0886C5.62148 58.3529 5.62148 58.6172 5.59746 58.8814C5.59746 59.0976 5.57344 59.3138 5.57344 59.5301C5.57344 59.7463 5.54941 59.9625 5.54941 60.2027C5.54941 60.5871 5.52539 60.9715 5.52539 61.3318C5.52539 61.3799 5.52539 61.4519 5.52539 61.5C5.52539 61.5 5.52539 61.5 5.52539 61.524C5.52539 61.548 5.52539 61.524 5.52539 61.548C5.52539 61.5961 5.52539 61.6681 5.52539 61.7162C5.52539 62.1006 5.52539 62.4849 5.54941 62.8453C5.54941 63.0615 5.57344 63.2777 5.57344 63.5179C5.57344 63.7341 5.59746 63.9504 5.59746 64.1666C5.62148 64.4308 5.62148 64.6951 5.64551 64.9593C5.64551 65.1275 5.66953 65.2957 5.66953 65.4638C5.69355 65.7521 5.71758 66.0404 5.7416 66.3287C5.7416 66.4488 5.76562 66.5929 5.76562 66.7131C5.78965 67.0254 5.8377 67.3377 5.86172 67.674C5.86172 67.7461 5.88574 67.8422 5.88574 67.9142C9.05684 95.8054 32.7439 117.499 61.5 117.499C90.2561 117.499 113.943 95.8054 117.114 67.8902C117.114 67.8181 117.138 67.722 117.138 67.65C117.162 67.3377 117.21 67.0254 117.234 66.689C117.258 66.5689 117.258 66.4248 117.258 66.3047C117.282 66.0164 117.306 65.7281 117.33 65.4398C117.33 65.2717 117.354 65.1035 117.354 64.9353C117.379 64.6711 117.379 64.4068 117.403 64.1426C117.403 63.9263 117.427 63.7101 117.427 63.4939C117.427 63.2777 117.451 63.0615 117.451 62.8213C117.451 62.4369 117.475 62.0525 117.475 61.6922C117.475 61.6441 117.475 61.572 117.475 61.524C117.475 61.5 117.475 61.5 117.475 61.4759C117.475 61.5 117.475 61.5 117.475 61.4759Z" fill="#2BB673"/>
<path d="M51.3135 82.6887L88.8141 45.2122" stroke="white" stroke-width="10" stroke-miterlimit="10"/>
<path d="M56.1666 82.9289L37.1641 63.9264" stroke="white" stroke-width="10" stroke-miterlimit="10"/>
</svg>
