<svg width="73" height="73" viewBox="0 0 73 73" fill="none" xmlns="http://www.w3.org/2000/svg">
<path d="M17.3443 36.5793C16.4054 35.6405 16.4054 34.1181 17.3443 33.1793C18.2832 32.2405 19.8054 32.2405 20.7444 33.1793L30.3998 42.8346L50.6776 22.5566C51.6164 21.6177 53.1387 21.6177 54.0776 22.5566C55.0167 23.4955 55.0167 25.0177 54.0776 25.9566L32.2417 47.7926C31.2236 48.8107 29.5728 48.8107 28.5547 47.7926L17.3443 36.5793Z" fill="#F38705"/>
<path fill-rule="evenodd" clip-rule="evenodd" d="M36.4998 2.60718C17.7813 2.60718 2.60693 17.7815 2.60693 36.5C2.60693 55.2185 17.7813 70.3929 36.4998 70.3929C55.2183 70.3929 70.3926 55.2185 70.3926 36.5C70.3926 17.7815 55.2183 2.60718 36.4998 2.60718ZM7.82122 36.5C7.82122 20.6613 20.6611 7.82146 36.4998 7.82146C52.3384 7.82146 65.1784 20.6613 65.1784 36.5C65.1784 52.3387 52.3384 65.1786 36.4998 65.1786C20.6611 65.1786 7.82122 52.3387 7.82122 36.5Z" fill="#F38705"/>
</svg>
