<svg width="60" height="60" viewBox="0 0 60 60" fill="none" xmlns="http://www.w3.org/2000/svg">
<g clip-path="url(#clip0_33_946)">
<path d="M37.3594 9.375C40.5397 10.2285 43.4396 11.9036 45.768 14.232C48.0964 16.5604 49.7715 19.4603 50.625 22.6406" stroke="#F38705" stroke-width="2" stroke-linecap="round" stroke-linejoin="round"/>
<path d="M35.4141 16.6172C37.3268 17.1252 39.0713 18.1298 40.4708 19.5292C41.8702 20.9287 42.8748 22.6732 43.3828 24.5859" stroke="#F38705" stroke-width="2" stroke-linecap="round" stroke-linejoin="round"/>
<path d="M21.6797 29.25C23.6091 33.2344 26.831 36.448 30.8203 38.3672C31.1146 38.5065 31.4401 38.5668 31.7647 38.5422C32.0894 38.5175 32.402 38.4087 32.6719 38.2266L38.5312 34.3125C38.7901 34.1369 39.0893 34.0298 39.4007 34.0011C39.7122 33.9724 40.0259 34.0231 40.3125 34.1484L51.2812 38.8594C51.6561 39.0154 51.9693 39.2903 52.1726 39.6418C52.3759 39.9934 52.458 40.4019 52.4062 40.8047C52.0586 43.5181 50.7341 46.0119 48.6807 47.8195C46.6273 49.627 43.9856 50.6244 41.25 50.625C32.7962 50.625 24.6887 47.2667 18.711 41.289C12.7332 35.3113 9.375 27.2038 9.375 18.75C9.37562 16.0144 10.373 13.3727 12.1805 11.3193C13.9881 9.26585 16.4819 7.9414 19.1953 7.59375C19.5981 7.54202 20.0066 7.62411 20.3582 7.82739C20.7097 8.03067 20.9846 8.34387 21.1406 8.71875L25.8516 19.7109C25.9741 19.993 26.0253 20.3009 26.0008 20.6074C25.9763 20.9139 25.8767 21.2098 25.7109 21.4688L21.7969 27.4219C21.6226 27.6911 21.5203 28.0006 21.4998 28.3207C21.4793 28.6407 21.5412 28.9607 21.6797 29.25Z" stroke="#F38705" stroke-width="2" stroke-linecap="round" stroke-linejoin="round"/>
</g>
<defs>
<clipPath id="clip0_33_946">
<rect width="60" height="60" fill="white"/>
</clipPath>
</defs>
</svg>
