<svg width="82" height="74" viewBox="0 0 82 74" fill="none" xmlns="http://www.w3.org/2000/svg">
<path fill-rule="evenodd" clip-rule="evenodd" d="M19.6315 36.261C18.8487 36.578 17.9257 36.2695 17.5699 35.5724C15.9968 32.4882 15.124 29.0808 15.124 25.5009C15.124 11.5709 28.2897 0.370117 44.4008 0.370117C60.5119 0.370117 73.6775 11.5709 73.6775 25.5009C73.6775 26.2669 72.9804 26.8879 72.1206 26.8879C71.2607 26.8879 70.5636 26.2669 70.5636 25.5009C70.5636 13.2043 58.908 3.14397 44.4008 3.14397C29.8933 3.14397 18.2379 13.2043 18.2379 25.5009C18.2379 28.6749 19.0109 31.6919 20.4049 34.4247C20.7607 35.1223 20.4144 35.9444 19.6315 36.261ZM45.9578 14.5414C45.9578 13.7755 45.2607 13.1545 44.4008 13.1545C43.541 13.1545 42.8439 13.7755 42.8439 14.5414V15.7519C40.7762 15.8832 38.7385 16.3385 37.1317 17.1215C35.4236 17.9539 33.8886 19.3366 33.8886 21.3056V21.6155V21.9131L34.0256 22.1846C34.8141 23.7453 36.1078 24.6101 37.6303 25.0481C39.0424 25.4542 40.6604 25.4928 42.1443 25.5089L42.5935 25.5134C45.5135 25.5413 48.3509 25.5685 50.9567 27.0053C51.5998 27.6446 51.77 28.0938 51.7962 28.3491C51.819 28.5742 51.7484 28.8145 51.4375 29.113C50.7117 29.809 49.0157 30.46 46.7134 30.7322C44.4826 30.9963 42.045 30.859 40.1406 30.2976C38.1941 29.7236 37.1906 28.8447 36.9743 27.847C36.8112 27.0949 35.9949 26.6029 35.1504 26.748C34.3063 26.8932 33.7537 27.6206 33.9169 28.3727C34.4471 30.8191 36.7659 32.2245 39.1624 32.9309C40.3124 33.2701 41.5709 33.4802 42.8522 33.5752C42.8468 33.6225 42.8439 33.6706 42.8439 33.7191V34.9976C42.8439 35.7636 43.541 36.3846 44.4008 36.3846C45.2607 36.3846 45.9578 35.7636 45.9578 34.9976V33.7191C45.9578 33.6751 45.9553 33.6318 45.9507 33.5889C46.3472 33.5634 46.7388 33.5275 47.1236 33.482C49.6488 33.1832 52.2446 32.4154 53.7193 31.0003C54.5082 30.2436 55.0147 29.2557 54.8972 28.0992C54.7847 26.9886 54.1175 25.9436 53.0949 24.9789L52.9658 24.8574L52.8084 24.7666C49.3744 22.7886 45.6277 22.7611 42.7695 22.7402C42.5702 22.7388 42.3726 22.7373 42.182 22.7352C40.6375 22.7185 39.4837 22.6662 38.5873 22.4084C37.8906 22.208 37.3787 21.8926 37.0026 21.2908C37.01 20.7827 37.397 20.1541 38.6259 19.555C39.8395 18.9637 41.5825 18.5703 43.4762 18.4979C45.3632 18.4257 47.2582 18.678 48.7661 19.2566C50.267 19.8326 51.2606 20.6758 51.6675 21.7494C51.9427 22.4751 52.8263 22.8647 53.6409 22.6196C54.4555 22.3744 54.8931 21.5874 54.6178 20.8617C53.8451 18.8239 52.0366 17.4914 49.998 16.7091C48.7462 16.2286 47.3611 15.9346 45.9578 15.7998V14.5414ZM73.8918 31.8329C71.8856 31.8329 70.2588 33.2819 70.2588 35.069V44.8999C70.2588 45.1322 70.0658 45.3286 69.8071 45.3585L61.4734 46.329V46.1552C61.4734 44.3681 59.8467 42.919 57.8405 42.919H48.0599C48.0034 42.919 47.9474 42.9109 47.8942 42.895L39.3177 40.3175C38.9436 40.2051 38.5512 40.1478 38.1564 40.1478H25.048C24.115 40.1478 23.2178 40.4673 22.5422 41.0406L15.6316 46.9049C15.009 47.4334 14.9851 48.311 15.5783 48.8658C16.1714 49.4202 17.1568 49.4416 17.7795 48.9131L24.6901 43.0492C24.7865 42.9671 24.9147 42.9216 25.048 42.9216H38.1564C38.2128 42.9216 38.2689 42.9297 38.322 42.9456L46.8986 45.5231C47.2727 45.6355 47.665 45.6929 48.0599 45.6929H57.8405C58.127 45.6929 58.3595 45.9 58.3595 46.1552V47.909V49.6628C58.3595 49.9184 58.127 50.1251 57.8405 50.1251H38.4968C37.637 50.1251 36.9399 50.7461 36.9399 51.512C36.9399 52.278 37.637 52.899 38.4968 52.899H57.8405C59.8467 52.899 61.4734 51.4503 61.4734 49.6628V49.1265L70.2111 48.1091C72.0201 47.8983 73.3728 46.5254 73.3728 44.8999V35.069C73.3728 34.8138 73.6053 34.6067 73.8918 34.6067H75.2013C75.3702 34.6067 75.5284 34.6799 75.6256 34.8027L78.7914 38.8056C78.8533 38.8836 78.8861 38.9764 78.8861 39.0719V50.7882C78.8861 50.9047 78.8371 51.0168 78.7482 51.1023L71.2889 58.2913C71.1905 58.386 71.0527 58.4396 70.9078 58.4396H29.5723C28.7124 58.4396 28.0153 59.0606 28.0153 59.8266C28.0153 60.5929 28.7124 61.2135 29.5723 61.2135H70.9078C71.9209 61.2135 72.8882 60.837 73.5758 60.1742L81.0351 52.9848C81.6554 52.3871 82 51.6027 82 50.7882V39.0719C82 38.4047 81.7687 37.7534 81.3369 37.2078L78.1711 33.2054C77.4906 32.3447 76.3829 31.8329 75.2013 31.8329H73.8918ZM9.85669 53.7851C10.0601 53.6076 10.3861 53.6091 10.5873 53.7888L21.6824 63.6856C21.8816 63.8631 21.8851 64.1501 21.6902 64.3317L15.0729 70.4967C14.8685 70.6871 14.5271 70.6871 14.3227 70.4967L3.25779 60.1883C3.06148 60.0052 3.06672 59.7156 3.26958 59.5385L9.85669 53.7851ZM12.7906 51.8286C11.3821 50.5723 9.09996 50.5615 7.67661 51.8046L1.0895 57.5579C-0.330451 58.798 -0.367154 60.8248 1.00712 62.1052L12.072 72.4136C13.5027 73.7465 15.8928 73.7465 17.3235 72.4136L23.9409 66.2486C25.3049 64.9778 25.2804 62.9695 23.8857 61.7254L12.7906 51.8286Z" fill="black"/>
</svg>
