<svg width="46" height="46" viewBox="0 0 46 46" fill="none" xmlns="http://www.w3.org/2000/svg">
<path d="M22.9995 41.3597C33.1236 41.3597 41.3595 33.1239 41.3595 23.0003C41.3595 12.8767 33.1236 4.64026 22.9995 4.64026C12.8759 4.64026 4.64014 12.8768 4.64014 23.0003C4.64014 33.1238 12.8759 41.3597 22.9995 41.3597ZM22.9995 7.53682C31.5262 7.53682 38.4637 14.4736 38.4637 23.0003C38.4637 31.5263 31.5262 38.4639 22.9995 38.4639C14.4734 38.4639 7.5367 31.5263 7.5367 23.0003C7.53661 14.4736 14.4733 7.53682 22.9995 7.53682Z" fill="#F38705"/>
<path d="M15.4601 30.6824C15.7692 30.9865 16.1857 31.1566 16.6193 31.1558C17.0484 31.1558 17.4764 30.9905 17.8008 30.6606L22.9997 25.3623L28.1996 30.6606C28.3536 30.8177 28.5374 30.9424 28.7402 31.0274C28.943 31.1125 29.1608 31.1561 29.3807 31.1558C29.7992 31.1558 30.2177 30.999 30.5399 30.6824C31.1925 30.0422 31.2019 28.9939 30.5616 28.3418L25.3186 23.0004L30.5616 17.6582C31.2019 17.0061 31.1924 15.9583 30.5399 15.318C29.8883 14.678 28.8406 14.6875 28.1995 15.3396L22.9996 20.6377L17.8008 15.3396C17.1597 14.6869 16.112 14.678 15.4599 15.318C14.8078 15.9583 14.7978 17.0061 15.4387 17.6582L20.6811 23.0004L15.4387 28.3418C14.798 28.9939 14.808 30.0422 15.4601 30.6824Z" fill="#F38705"/>
</svg>
