<svg width="25" height="31" viewBox="0 0 25 31" fill="none" xmlns="http://www.w3.org/2000/svg">
<path d="M7.4735 16.1001C3.43781 18.0562 0.511314 22.1189 0 27.0844C0 28.7396 1.16486 30.0938 2.70971 30.0938H22.2896C23.835 30.0938 25 28.7396 25 27.0844C24.4881 22.1189 21.5609 18.0562 17.5261 16.1001C16.6184 18.0562 14.7136 19.561 12.4997 19.561C10.2857 19.561 8.38047 18.0562 7.4735 16.1001Z" fill="#F38705"/>
<path d="M19.4925 7.52345C19.4925 9.51879 18.7557 11.4324 17.4443 12.8433C16.1329 14.2542 14.3543 15.0469 12.4996 15.0469C10.645 15.0469 8.86639 14.2542 7.55498 12.8433C6.24358 11.4324 5.50684 9.51879 5.50684 7.52345C5.50684 5.52811 6.24358 3.61449 7.55498 2.20357C8.86639 0.792647 10.645 0 12.4996 0C14.3543 0 16.1329 0.792647 17.4443 2.20357C18.7557 3.61449 19.4925 5.52811 19.4925 7.52345Z" fill="#F38705"/>
<path d="M12.4997 13.542C10.7137 13.542 9.01122 13.9468 7.4735 14.6705C3.43781 16.5694 0.511314 20.6848 0 25.5795C0 27.2422 1.16486 28.5889 2.70971 28.5889H22.2896C23.835 28.5889 25 27.2422 25 25.5795C24.4881 20.6848 21.5609 16.5694 17.5261 14.6705C15.9877 13.9468 14.2856 13.542 12.4997 13.542Z" fill="#F38705"/>
</svg>
